<?xml version="1.0" encoding="iso-8859-1"?>
<!-- Generator: Adobe Illustrator 19.0.0, SVG Export Plug-In . SVG Version: 6.00 Build 0)  -->
<svg version="1.1" id="Capa_1" xmlns="http://www.w3.org/2000/svg" xmlns:xlink="http://www.w3.org/1999/xlink" x="0px" y="0px"
	 viewBox="0 0 512 512" style="enable-background:new 0 0 512 512;" xml:space="preserve">
<rect x="204.8" y="412.587" style="fill:#ABBACD;" width="102.4" height="62.295"/>
<rect x="204.8" y="412.587" style="fill:#91A4B6;" width="102.4" height="28.209"/>
<path style="fill:#BAC7D9;" d="M494.933,76.8c9.426,0,17.067,7.641,17.067,17.067v307.199c0,9.426-7.641,17.067-17.067,17.067
	H17.067C7.641,418.133,0,410.491,0,401.066V93.867C0,84.442,7.641,76.8,17.067,76.8H494.933z"/>
<path style="fill:#A5B5CC;" d="M494.933,76.8H472.27c9.426,0,17.067,7.641,17.067,17.067v307.199
	c0,9.426-7.641,17.067-17.067,17.067h22.663c9.426,0,17.067-7.641,17.067-17.067V93.867C512,84.441,504.359,76.8,494.933,76.8z"/>
<circle style="fill:#D7DCF2;" cx="256" cy="384" r="12.801"/>
<path style="fill:#474855;" d="M512,349.865V93.867c0-9.426-7.641-17.067-17.067-17.067H17.067C7.641,76.8,0,84.441,0,93.867
	v255.998H512z"/>
<path style="fill:#3C3C47;" d="M494.933,76.8h-22.664c9.426,0,17.067,7.641,17.067,17.067v255.998H512V93.867
	C512,84.441,504.359,76.8,494.933,76.8z"/>
<path style="fill:#FFFFFF;" d="M25.6,108.581v209.503c0,3.414,2.767,6.181,6.181,6.181H480.22c3.414,0,6.181-2.767,6.181-6.181
	V108.581c0-3.414-2.767-6.181-6.181-6.181H31.781C28.367,102.4,25.6,105.167,25.6,108.581z"/>
<path style="fill:#92D782;" d="M486.398,145.066H25.601v-36.485c0-3.414,2.767-6.181,6.181-6.181H480.22
	c3.414,0,6.181,2.768,6.181,6.181L486.398,145.066z"/>
<path style="fill:#FFFFFF;" d="M68.266,131.459H51.201c-4.267,0-7.726-3.459-7.726-7.726c0-4.267,3.459-7.726,7.726-7.726h17.065
	c4.267,0,7.726,3.459,7.726,7.726C75.992,128,72.533,131.459,68.266,131.459z"/>
<path style="fill:#BAC7D9;" d="M369.286,503.467h-226.57c-3.414,0-6.181-2.767-6.181-6.181v-21.771c0-3.414,2.767-6.181,6.181-6.181
	h226.571c3.414,0,6.181,2.767,6.181,6.181v21.771C375.467,500.7,372.7,503.467,369.286,503.467z"/>
<path style="fill:#A5B5CC;" d="M369.286,469.333h-22.664c3.414,0,6.181,2.767,6.181,6.181v21.771c0,3.414-2.767,6.181-6.181,6.181
	h22.664c3.414,0,6.181-2.767,6.181-6.181v-21.771C375.467,472.101,372.7,469.333,369.286,469.333z"/>
<path style="fill:#BAC7D9;" d="M170.666,75.069V14.714c0-3.414,2.767-6.181,6.181-6.181h175.372c3.414,0,6.181,2.767,6.181,6.181
	V76.8L170.666,75.069z"/>
<path style="fill:#A5B5CC;" d="M358.4,59.733h-22.664v-51.2h16.483c3.414,0,6.181,2.767,6.181,6.181V59.733z"/>
<path style="fill:#FFFFFF;" d="M153.6,116.007V40.314c0-3.414,2.767-6.181,6.181-6.181h166.838c3.414,0,6.181,2.767,6.181,6.181
	v75.693H153.6z"/>
<path style="fill:#FFC880;" d="M375.467,59.733h-68.268l-34.133,42.666H136.533c-9.426,0-17.067,7.641-17.067,17.067v145.068
	c0,9.426,7.641,17.067,17.067,17.067h238.935c9.426,0,17.067-7.641,17.067-17.067V76.8
	C392.534,67.374,384.893,59.733,375.467,59.733z"/>
<path style="fill:#FFAA6E;" d="M375.467,59.733h-16.001h-6.663c9.426,0,17.067,7.641,17.067,17.067v187.734
	c0,9.426-7.641,17.067-17.067,17.067h22.664c9.426,0,17.067-7.641,17.067-17.067V76.799
	C392.534,67.374,384.893,59.733,375.467,59.733z"/>
<rect x="153.6" y="221.87" style="fill:#FFFFFF;" width="51.2" height="25.599"/>
<g>
</g>
<g>
</g>
<g>
</g>
<g>
</g>
<g>
</g>
<g>
</g>
<g>
</g>
<g>
</g>
<g>
</g>
<g>
</g>
<g>
</g>
<g>
</g>
<g>
</g>
<g>
</g>
<g>
</g>
</svg>
